REM DIRINDEX 1\2,1\3,1\4,1\5
REM DIRNAME cjc004,folder01,folder02,folder03,folder04
TITLE ""
FILE "1Q_t_1941-1950.mp3" MP3
  TRACK 01 AUDIO
    TITLE "3:cjc004_6731"
    INDEX 01 00:00:00
  TRACK 02 AUDIO
    TITLE "0:"
    INDEX 01 00:01:09
  TRACK 03 AUDIO
    TITLE "4:cjc004_6732"
    INDEX 01 00:01:32
  TRACK 04 AUDIO
    TITLE "0:"
    INDEX 01 00:02:67
  TRACK 05 AUDIO
    TITLE "5:cjc004_6733"
    INDEX 01 00:03:17
  TRACK 06 AUDIO
    TITLE "0:"
    INDEX 01 00:07:27
  TRACK 07 AUDIO
    TITLE "3:cjc004_6734"
    INDEX 01 00:08:07
  TRACK 08 AUDIO
    TITLE "0:"
    INDEX 01 00:09:22
  TRACK 09 AUDIO
    TITLE "4:cjc004_6735"
    INDEX 01 00:09:53
  TRACK 10 AUDIO
    TITLE "0:"
    INDEX 01 00:11:21
  TRACK 11 AUDIO
    TITLE "5:cjc004_6736"
    INDEX 01 00:11:42
  TRACK 12 AUDIO
    TITLE "0:"
    INDEX 01 00:15:72
  TRACK 13 AUDIO
    TITLE "3:cjc004_6737"
    INDEX 01 00:16:55
  TRACK 14 AUDIO
    TITLE "0:"
    INDEX 01 00:17:70
  TRACK 15 AUDIO
    TITLE "4:cjc004_6738"
    INDEX 01 00:18:19
  TRACK 16 AUDIO
    TITLE "0:"
    INDEX 01 00:19:56
  TRACK 17 AUDIO
    TITLE "5:cjc004_6739"
    INDEX 01 00:20:04
  TRACK 18 AUDIO
    TITLE "0:"
    INDEX 01 00:24:69
  TRACK 19 AUDIO
    TITLE "3:cjc004_6740"
    INDEX 01 00:25:45
  TRACK 20 AUDIO
    TITLE "0:"
    INDEX 01 00:26:54
  TRACK 21 AUDIO
    TITLE "4:cjc004_6741"
    INDEX 01 00:27:10
  TRACK 22 AUDIO
    TITLE "0:"
    INDEX 01 00:28:31
  TRACK 23 AUDIO
    TITLE "5:cjc004_6742"
    INDEX 01 00:28:53
  TRACK 24 AUDIO
    TITLE "0:"
    INDEX 01 00:33:03
  TRACK 25 AUDIO
    TITLE "3:cjc004_6743"
    INDEX 01 00:33:58
  TRACK 26 AUDIO
    TITLE "0:"
    INDEX 01 00:35:02
  TRACK 27 AUDIO
    TITLE "4:cjc004_6744"
    INDEX 01 00:35:21
  TRACK 28 AUDIO
    TITLE "0:"
    INDEX 01 00:36:48
  TRACK 29 AUDIO
    TITLE "5:cjc004_6745"
    INDEX 01 00:36:74
  TRACK 30 AUDIO
    TITLE "0:"
    INDEX 01 00:41:32
  TRACK 31 AUDIO
    TITLE "3:cjc004_6746"
    INDEX 01 00:42:12
  TRACK 32 AUDIO
    TITLE "0:"
    INDEX 01 00:43:31
  TRACK 33 AUDIO
    TITLE "4:cjc004_6747"
    INDEX 01 00:43:56
  TRACK 34 AUDIO
    TITLE "0:"
    INDEX 01 00:45:18
  TRACK 35 AUDIO
    TITLE "5:cjc004_6748"
    INDEX 01 00:45:41
  TRACK 36 AUDIO
    TITLE "0:"
    INDEX 01 00:49:57
  TRACK 37 AUDIO
    TITLE "3:cjc004_6749"
    INDEX 01 00:50:35
  TRACK 38 AUDIO
    TITLE "0:"
    INDEX 01 00:51:48
  TRACK 39 AUDIO
    TITLE "4:cjc004_6750"
    INDEX 01 00:52:00
  TRACK 40 AUDIO
    TITLE "0:"
    INDEX 01 00:53:27
  TRACK 41 AUDIO
    TITLE "5:cjc004_6751"
    INDEX 01 00:53:51
  TRACK 42 AUDIO
    TITLE "0:"
    INDEX 01 00:58:07
  TRACK 43 AUDIO
    TITLE "3:cjc004_6752"
    INDEX 01 00:58:62
  TRACK 44 AUDIO
    TITLE "0:"
    INDEX 01 01:00:02
  TRACK 45 AUDIO
    TITLE "4:cjc004_6753"
    INDEX 01 01:00:33
  TRACK 46 AUDIO
    TITLE "0:"
    INDEX 01 01:02:24
  TRACK 47 AUDIO
    TITLE "5:cjc004_6754"
    INDEX 01 01:02:42
  TRACK 48 AUDIO
    TITLE "0:"
    INDEX 01 01:06:30
  TRACK 49 AUDIO
    TITLE "3:cjc004_6755"
    INDEX 01 01:07:08
  TRACK 50 AUDIO
    TITLE "0:"
    INDEX 01 01:08:40
  TRACK 51 AUDIO
    TITLE "4:cjc004_6756"
    INDEX 01 01:08:62
  TRACK 52 AUDIO
    TITLE "0:"
    INDEX 01 01:10:18
  TRACK 53 AUDIO
    TITLE "5:cjc004_6757"
    INDEX 01 01:10:41
  TRACK 54 AUDIO
    TITLE "0:"
    INDEX 01 01:14:68
  TRACK 55 AUDIO
    TITLE "3:cjc004_6758"
    INDEX 01 01:15:44
  TRACK 56 AUDIO
    TITLE "0:"
    INDEX 01 01:17:08
  TRACK 57 AUDIO
    TITLE "4:cjc004_6759"
    INDEX 01 01:17:37
  TRACK 58 AUDIO
    TITLE "0:"
    INDEX 01 01:18:72
  TRACK 59 AUDIO
    TITLE "5:cjc004_6760"
    INDEX 01 01:19:25
  TRACK 60 AUDIO
    TITLE "0:"
    INDEX 01 01:24:41
